<svg version="1.1" viewBox="0 0 370 370" xmlns="http://www.w3.org/2000/svg" xmlns:xlink="http://www.w3.org/1999/xlink">
 <defs>
  <clipPath id="A">
   <use x="-876.52" y="-112.03" width="100%" height="100%" fill="#ff0000" xlink:href="#B"/>
  </clipPath>
  <circle id="B" cx="1058" cy="293.51" r="181.48"/>
 </defs>
 <g transform="translate(4 3.04)" clip-path="url(#A)">
  <use x="-876.52" y="-112.03" width="100%" height="100%" fill="#d2fe3d" xlink:href="#B"/>
  <g fill="#231f20">
   <path d="M207.732 62.227c-30.255 1.854-27.56 43.334-1.36 50.3l50.963 34.777c-16.812 4.715-29.398-17.234-44.5-23.182-21.9-8.816-46.864-9.64-70.102-14.255-15.6 8.73-23.447 28.115-35.6 41.353-4.897 19.662 26.2 24.553 37.287 37.006 20.027 5.407 6.55 31-2.4 40.463-16.78 6.96-40.295 5.443-51.77 19.896 7.372 17.2 30.465 23.5 44.468 36.024L323.03 412.304c16.8-.938 33.42-11.435 49.83-11.164l76.07 51.84c22.463-.013 14.192-36.784 21.834-52.406 13.18-24.354-13.485-33.995-29.412-45.445-17.055-7.02 2.114-27.377 1.465-40.504.74-14.55 13.288 3.336 19.963 5.336 16.106 16.306 38.713-.18 56.904-4.143 9.364-19.636-25-26.186-36.102-38.57-10.966-11.535-41.55-16.1-26.003-35 1.258-23.398-26.457-30.016-40.948-42.9L219.36 65.053c-3.547-1.916-7.6-2.94-11.63-2.827z" opacity=".1"/>
   <path d="M212.45 146.82l-1.44 3.95-10.7 39.86c-.78 2.8-.25 4.26 2.34 5.68l32.1 18.07c5.72 3.25 7.02 6.04 5.75 12.58l-11.6 58.94c-.45 2.25-1.37 4.73-2.87 6.38-2.74 3.02-6.4 3.67-10.24 1.83-3.93-1.88-5.76-5.9-4.8-11.02l8.62-44.44c2.14-10.97 2.14-10.97-8.3-14.6l-39.84-13.9c-10.7-3.73-14.85-11.56-11.7-22.5L174 139c.46-1.56.86-3.14 1.5-5.4-7.36-1.25-14.48-2-21.34-3.78-5.4-1.4-8.36.26-11.46 4.58-6.7 9.37-13.93 18.35-21.04 27.42-2.46 3.14-5.64 4.96-9.8 3.7-3.8-1.13-6.36-3.7-6.52-7.66-.1-2.2.5-4.92 1.8-6.65l28.6-37.46c2.47-3.2 5.83-4.44 9.92-3.72l60.46 10.66c2.63.5 5.2 2.23 7.4 3.92l28.9 22.77c2.7 2.2 5.13 2.86 8.56 1.8 8.87-2.73 17.85-5.1 26.8-7.53 5.9-1.6 10.12.55 11.7 5.76 1.55 5.17-.82 9.58-6.6 11.28l-35.45 9.94c-3.98 1.12-7.27-.03-10.4-2.53l-24.55-19.3z"/>
   <path d="M160.3 185.9l12.03 4.45c4.06 1.44 8.16 2.76 12.92 4.36-3.08 5.5-15.6 30.36-17.85 35.78-3.66 8.84-9.9 13.1-19.2 15.18-15.15 3.42-30.08 7.9-44.96 12.42-6.9 2.1-11.32-1.6-12.63-5.8-1.6-5.13 1.44-9.67 7.77-11.48l43.65-12.12c3.7-.98 5.47-2.72 6.02-6.53.92-6.18 11.46-32.2 12.25-36.25zm70.85-106.3c3.44 12.04-4.14 25.35-16.4 28.77-12.37 3.45-25.48-4.08-29.03-16.67-3.3-11.73 4.18-24.86 16.28-28.54 12.14-3.7 25.57 3.87 29.16 16.44z"/>
  </g>
 </g>
</svg>
